<?xml version="1.0"?><!DOCTYPE svg  PUBLIC '-//W3C//DTD SVG 1.1//EN'  'http://www.w3.org/Graphics/SVG/1.1/DTD/svg11.dtd'><svg height="100%" style="fill-rule:evenodd;clip-rule:evenodd;stroke-linejoin:round;stroke-miterlimit:1.41421;" version="1.1" viewBox="0 0 129 128" width="100%" xml:space="preserve" xmlns="http://www.w3.org/2000/svg" xmlns:serif="http://www.serif.com/" xmlns:xlink="http://www.w3.org/1999/xlink"><rect height="128" id="Link-chain" style="fill:none;" width="128" x="0.408" y="0"/><path d="M47.022,48.643c1.564,0.179 2.418,2.107 1.324,3.38c-10.17,10.613 -20.404,21.167 -30.51,31.841c-2.808,3.044 -2.728,8.221 0.238,11.17c2.919,2.831 5.854,5.645 8.808,8.44c3.025,2.793 8.137,2.81 11.169,-0.238c10.255,-10.579 20.451,-21.215 30.58,-31.913c2.824,-3.06 2.769,-8.254 -0.318,-11.247c0,0 -0.654,-0.8 -0.603,-1.568c0.108,-1.643 2.281,-2.537 3.9,-0.782c4.025,4.366 4.205,11.711 -0.057,16.328c-10.151,10.723 -20.37,21.383 -30.648,31.984c-4.362,4.386 -11.988,4.76 -16.755,0.358c-5.473,-5.18 -12.153,-9.945 -12.457,-16.515c-0.148,-3.192 1.049,-6.395 3.22,-8.748c0,0 30.545,-31.878 30.545,-31.878c0,0 0.876,-0.616 1.564,-0.612Zm49.641,-30.271c6.535,0.147 11.518,6.527 16.883,11.741c4.405,4.376 4.737,12.121 0.259,16.858l-30.447,31.774c-1.318,1.234 -1.888,0.737 -2.576,0.265c-0.957,-0.657 -1.083,-2.135 -0.312,-3.033c10.171,-10.613 20.413,-21.159 30.511,-31.841c2.796,-3.027 2.743,-8.208 -0.239,-11.17c-4.544,-4.416 -8.777,-10.509 -14.143,-10.594c-2.159,-0.034 -4.295,0.846 -5.834,2.392c-10.255,10.579 -20.451,21.215 -30.58,31.913c-2.822,3.059 -2.797,8.225 0.319,11.248c0,0 1.23,2.217 -0.382,3.161c-3.947,2.311 -9.281,-10.179 -2.859,-17.14c10.152,-10.723 20.37,-21.383 30.648,-31.985c2.296,-2.306 5.512,-3.619 8.752,-3.589Z" style="fill-rule:nonzero;"/></svg>