<svg width="126" height="126" viewBox="0 0 126 126" fill="none" xmlns="http://www.w3.org/2000/svg">
<path d="M0.5 62.91V125.41H125.5V0.410004H0.5V62.91ZM101.23 57.91C104.224 58.6048 106.945 60.1706 109.05 62.41C110.209 63.6165 111.216 64.9597 112.05 66.41C112.05 66.57 106.65 70.22 103.36 72.26C103.24 72.34 102.76 71.82 102.23 71.03C101.629 69.9937 100.776 69.1264 99.7496 68.5091C98.7231 67.8918 97.557 67.5446 96.36 67.5C92.57 67.24 90.13 69.23 90.15 72.5C90.1187 73.3141 90.3051 74.1219 90.69 74.84C91.52 76.57 93.07 77.6 97.93 79.7C106.88 83.55 110.71 86.09 113.09 89.7C115.75 93.7 116.34 100.16 114.54 104.94C112.54 110.14 107.64 113.67 100.71 114.84C97.5448 115.203 94.3468 115.169 91.19 114.74C86.3516 113.942 81.8948 111.619 78.47 108.11C77.32 106.84 75.08 103.53 75.22 103.29C75.5851 103.019 75.9694 102.775 76.37 102.56L81 100L84.59 97.92L85.34 99.03C86.6057 100.841 88.2166 102.383 90.08 103.57C94.08 105.67 99.54 105.38 102.24 102.95C103.147 102.06 103.712 100.879 103.838 99.615C103.964 98.3505 103.643 97.0819 102.93 96.03C101.93 94.64 99.93 93.47 94.34 91.03C87.89 88.25 85.11 86.53 82.57 83.79C80.9843 81.9819 79.8136 79.8486 79.14 77.54C78.6375 74.9025 78.5633 72.2012 78.92 69.54C80.25 63.31 84.92 58.96 91.74 57.67C94.8984 57.2792 98.0977 57.3669 101.23 57.93V57.91ZM71.89 63.15V68.27H55.66V114.5H44.15V68.26H27.88V63.26C27.8293 61.5358 27.8694 59.81 28 58.09C28.08 58 38 58 50 58H71.83L71.89 63.15Z" fill="#007ACC"/>
</svg>
